<svg version="1" xmlns="http://www.w3.org/2000/svg" width="1253.333" height="1253.333" viewBox="0 0 940.000000 940.000000"><path d="M258.9.4c-.2.2-8.3.7-17.9 1.1-9.6.3-19.1.8-21 1-1.9.2-8.7.6-15 1-6.3.4-13.1.8-15 1-1.9.2-7.3.6-12 1-4.7.3-12.1 1-16.5 1.5s-10.2 1.2-13 1.5c-4.6.5-9.7 1.2-15.3 2-1.2.1-5 .6-8.5 1-3.4.4-6.5.9-6.8 1-.3.2-2.8.7-5.5 1-2.7.4-5.6.8-6.4 1-.8.3-3.3.7-5.5 1-6.1.9-28.8 6.2-39.7 9.2l-9.7 2.7-6 12.1c-3.2 6.6-7.3 15.2-8.9 19C32.8 66.3 22.9 95 23.5 95c.2 0-.2 1.8-1 4-1.5 4.4-6.2 24.6-6.9 30-.2 1.9-1.1 7.8-2 13.1-.9 5.3-1.8 11.9-2.1 14.5-.3 2.7-.7 6.2-1 7.9-.3 2.9-1.1 10.2-2 21-2.5 28.4-2.5 110.1 0 171 .2 4.9.6 17.3 1 27.5.3 10.2.8 21.9 1 26 .2 4.1.7 14 1 22 .4 8 .8 17.9 1 22 .2 4.1.6 13.3 1 20.5.3 7.1.8 16.4 1 20.5.3 4.1.7 12.7 1 19 .7 14.4 1.3 24.8 3.1 55.5.3 5.5.7 12.7.9 16 1.3 24 1.9 34.3 2.4 36.7 0 .3 1.3.5 2.9.3 1.5-.2 9.2-.6 17.2-1s16.1-.8 18-1c1.9-.2 9.6-.6 17-1 7.4-.3 16-.8 19-1 3-.2 11.4-.7 18.5-1 7.2-.3 15-.8 17.5-1 2.5-.2 9.7-.6 16-1 6.3-.3 14.9-.8 19-1 4.1-.2 12.7-.7 19-1.1 6.3-.3 11.9-.8 12.3-1.1.5-.3.6-1.7.3-3.1-.3-1.5-.8-5.9-1.1-9.7-.4-3.9-.8-8-1-9.3-.2-1.2-.7-5.7-1-10-.4-4.2-.8-8.8-1-10.2-.2-1.4-.7-6.1-1.1-10.5-.3-4.4-.8-8.9-1-10-.2-1.1-.6-5.3-.9-9.5-.4-4.1-.8-8.6-1-10-.2-1.4-.7-6.1-1.1-10.5-.4-4.4-.8-9.4-1-11-.1-1.7-.6-6.4-.9-10.5-.3-4.1-.8-8.6-1-10-.2-1.4-.6-5.9-1-10s-.8-8.6-1-10c-.2-1.4-.6-5.9-1-10-.3-4.1-.8-9.5-1-12-.2-2.5-.7-7.2-1-10.5-.3-3.3-.7-8.5-1-11.5-.3-3-.8-8-1-11-.3-3-.8-7.3-1-9.5-.3-2.2-.7-7.6-1-12-.3-4.4-.8-9.6-1.1-11.5-.2-1.9-.7-6-.9-9-.8-10.2-1.5-18.5-2-23-.2-2.5-.7-7.9-1-12-.3-4.1-.7-9.5-1-12-.2-2.5-.7-8.8-1.1-14-.3-5.2-.8-11.3-.9-13.5-.2-2.2-.6-9-1-15-.4-6.1-.8-12.6-1-14.5-.2-1.9-.6-9.8-1-17.5-.4-7.7-.8-16.7-1-20-.7-10.8-.8-19.5-.4-20 .7-.7 10.7-1.5 36.9-3 4.1-.3 20-.8 35.3-1.1l27.7-.7v6.4c.1 16.3.9 49.8 1.4 52.9.3 1.9.7 6 1.1 9 .3 3 .7 6.5.9 7.6.3 1.2.7 3.9 1 6 .3 2.2.8 5 1.1 6.4.3 1.4.7 3.4.9 4.6 2.1 10.9 7.2 27.8 12.8 41.9 3.7 9.5 13.3 29 16.9 34.5 6.5 10 14.3 21.6 14.8 22 .3.3 1.9 2.3 3.6 4.5 3.7 5 8.8 10.8 18.5 20.7 4.1 4.3 7.5 8.2 7.5 8.7s-1.6 2.6-3.5 4.8c-3.4 3.6-12.2 14.1-14.7 17.3-.6.8-3.1 4-5.5 7-25.3 32-48.4 75.2-56.3 105.3-12.7 48.5-7.8 87.2 15 119.2 4.4 6.1 16.8 19.2 22.1 23.2 1.6 1.3 4.2 3.3 5.9 4.5 19.9 15.3 56.1 30.7 85 36.4 5 1 13.4 2.4 17 2.9 2.2.3 4.9.8 6 1 5.9 1.2 22.7 2 44.5 2 25.6 0 38.3-.7 52-3.1 1.4-.2 5.2-.8 8.5-1.4 10.7-1.8 30.6-7 42.4-11.1 10.7-3.8 29.9-12.5 39.7-18.2 15.4-8.8 36.9-27.4 47.1-40.7 21.2-27.9 30.1-54.2 30.1-89 0-37.8-9-61.4-35.2-92-8.2-9.6-38.1-38.3-54.1-52.1-9.9-8.4-20-17.3-22.5-19.6-2.5-2.3-6.3-5.6-8.4-7.5-8.6-7.2-37.8-36.8-43.8-44.3-20.9-26.3-37-60.1-42.2-88.9-.3-1.4-.7-3.4-1-4.4-.5-1.9-1.3-7.8-2.5-18.7-.4-3.9-.9-18.3-1-32.1-.2-20 0-25.2 1.1-25.6 2.2-.7 239.9-.1 247.8.6 11.1 1 15.8 1.6 23.1 2.7l6.5 1-.2 10.2c-2.7 97.6-2 203 2.1 287.7.3 5.2.7 15.3 1 22.5.5 12.3.8 18 2 40.5.3 5.2.7 13.8 1 19 .5 8.6 1.4 24.5 1.8 31 .2 2.3.6 2.5 4.7 2.3 5.5-.2 26.5-1.3 34-1.8 3-.2 10.9-.7 17.5-1 6.6-.3 14.7-.8 18-1 3.3-.2 11.4-.6 18-1s14.5-.8 17.5-1c3-.2 10.7-.6 17-.9 6.3-.4 14.4-.8 18-1.1 3.6-.3 12.1-.7 19-1.1 6.9-.3 12.8-.8 13.1-.9.3-.2.4-1.9.3-3.7-.1-1.8-.5-14.1-.9-27.3-.3-13.2-.8-29.9-1-37-.2-7.2-.7-22-1-33-.8-28.2-1.4-49-2-71-.4-10.5-.8-24.6-1-31.5-.2-6.9-.7-24-1-38-.8-36.9-1.4-63.1-2-83-.3-9.6-.7-26.5-1-37.5-.5-19-.7-25.1-2-60-1.7-46.7-3.5-84.6-5-103-.2-3.3-.7-9.8-1-14.5-.3-4.7-.7-9.9-1-11.5-.2-1.7-.7-6.2-1.1-10-.3-3.9-1.2-9.9-1.8-13.5l-1.2-6.4-13.5-4.9C873 18 837.6 10.1 806 6.5c-2.5-.3-5.6-.7-7-1-1.4-.2-6.3-.7-11-1.1-4.7-.3-9.2-.7-10-.9-.8-.1-6.4-.6-12.5-1-6-.4-13.2-1-16-1.3-5.6-.6-490-1.4-490.6-.8zm226 516.6c11.1 26.3 15.3 55.1 12.7 86.5-2.5 29.4-15.9 53.8-32.1 58.4-3.7 1-4.2.9-6.2-1.3-3.6-4.2-7.2-15.8-9.9-32.1-1.3-7.9-1.1-43.9.2-54.5 4-30.6 11.2-53.4 22.6-71.3l3.1-4.8 2.8 4.8c1.6 2.6 4.7 9.1 6.8 14.3zM747.7 758.2c-7.1 9.5-14.7 24.7-14.7 29.5 0 1.3 2 2.9 6.3 5.1 5.9 3 10.6 5.6 24.1 13.2 3.3 1.8 9.8 5.6 14.5 8.5 4.8 2.8 9.1 5.4 9.6 5.6 1.5.6 10.7 6.5 21.3 13.5l9.2 6.2 5.6-5.6c3-3.1 7.8-8.6 10.5-12.2 4.6-6.2 10.9-17 10.9-18.9 0-1.8-40.5-26.4-48-29.2-.8-.3-6-2.6-11.5-5.3-5.5-2.6-10.9-5.1-12-5.5-1.1-.5-3.3-1.4-5-2.1-4.3-1.8-16.7-6-17.6-6-.4 0-1.9 1.5-3.2 3.2zM177.5 775.1c-20.1 7.7-36.3 15.4-55.5 26.4-13.7 7.9-29 17.4-29 18.2 0 .2 1.2 2.7 2.6 5.6 3.8 7.4 10.8 17.2 17.8 24.4 5.6 6 8.7 7.6 10.1 5.3.6-1 12.6-9 21.8-14.6 2.7-1.6 6.1-3.6 7.5-4.5 8.3-5.1 42.4-24.3 47-26.6 5.3-2.6 5.4-2.7 4.9-6.4-1-7.8-13.9-30-17.7-30.6-.8-.1-5.1 1.1-9.5 2.8zM457.3 830c-2.4.4-4.5.9-4.9 1.2-.3.3-.7 3.2-.9 6.5-.4 5.9-1.5 18.7-2 23.3-.1 1.4-.6 5.8-1 9.8-.3 4.1-.8 8.1-1 9-.1.9-.6 4.6-.9 8.2-.4 3.6-1.1 9-1.6 12s-1.2 7.7-1.5 10.3c-.5 4.3-1.4 9.1-3 16.5-.5 2 .2 2.6 4.7 4.7 10.3 4.7 29.5 8.5 38.9 7.6 1.2-.1 1.9-2.2 2.8-8.8.7-4.9 1.4-9.7 1.6-10.9.2-1.1.6-5.2 1-9s.9-7.7 1.1-8.7c.6-3.6 1.8-28.5 1.7-38.7 0-13.8-1-28.1-2.1-29.2-2.5-2.5-24.5-5-32.9-3.8z"/></svg>